<svg width="512" height="512" viewBox="0 0 512 512" fill="none" xmlns="http://www.w3.org/2000/svg">
<rect width="512" height="512" fill="white"/>
<path d="M262.836 235.344C220.941 235.344 183.075 240.381 154.56 248.588V246.734C126.044 255.909 107.881 268.655 107.881 282.747C107.881 284.969 108.373 287.157 109.235 289.302L106.316 294.538C106.316 294.538 103.972 297.594 108.121 304.043C111.78 309.729 130.116 331.987 139.791 343.643C143.946 349.619 146.767 353.299 147.013 352.943C147.401 352.379 144.431 341.161 136.178 328.361C132.327 321.486 127.638 312.378 124.878 305.65C132.585 310.528 142.861 314.953 154.56 318.761V318.703C183.075 326.911 220.941 331.947 262.836 331.947C310.785 331.947 353.804 325.35 382.685 314.951V252.341C353.804 241.942 310.785 235.344 262.836 235.344Z" fill="#A52B00"/>
<path d="M425.771 293.41L420.86 283.236C420.886 282.85 420.906 282.464 420.906 282.076C420.906 270.542 408.913 259.914 388.735 251.403V312.749C398.15 308.777 405.788 304.346 411.25 299.574C409.642 306.039 404.144 319.116 399.761 328.313C392.556 341.467 389.947 352.918 390.281 353.485C390.495 353.842 392.953 350.051 396.578 343.906C405.012 331.887 420.996 308.942 424.19 303.097C427.809 296.472 425.771 293.41 425.771 293.41Z" fill="#A52B00"/>
<path d="M454.298 293.351L422.019 269.573C421.715 268.514 421.412 267.457 421.099 266.407L431.701 251.047C432.784 249.484 433.002 247.454 432.299 245.672C431.595 243.899 430.056 242.627 428.235 242.316L410.306 239.274C409.612 237.856 408.883 236.46 408.153 235.076L415.685 217.83C416.46 216.073 416.297 214.032 415.269 212.437C414.246 210.835 412.508 209.899 410.656 209.972L392.461 210.634C391.519 209.407 390.562 208.191 389.585 206.997L393.767 188.513C394.191 186.637 393.656 184.672 392.349 183.308C391.049 181.95 389.16 181.387 387.364 181.828L369.641 186.185C368.493 185.171 367.327 184.17 366.146 183.189L366.784 164.212C366.853 162.291 365.957 160.466 364.419 159.4C362.883 158.327 360.932 158.166 359.251 158.963L342.717 166.824C341.386 166.06 340.047 165.303 338.694 164.571L335.772 145.872C335.475 143.977 334.256 142.368 332.55 141.633C330.848 140.894 328.897 141.133 327.403 142.258L312.662 153.318C311.211 152.836 309.753 152.374 308.277 151.932L301.923 134.199C301.277 132.392 299.787 131.064 297.971 130.691C296.16 130.321 294.298 130.948 293.042 132.35L280.635 146.232C279.134 146.06 277.633 145.903 276.128 145.772L266.547 129.63C265.576 127.995 263.862 127 262.015 127C260.172 127 258.454 127.995 257.492 129.63L247.908 145.772C246.402 145.903 244.894 146.06 243.396 146.232L230.987 132.35C229.731 130.948 227.861 130.321 226.057 130.691C224.241 131.069 222.75 132.392 222.106 134.199L215.747 151.932C214.275 152.374 212.817 152.839 211.362 153.318L196.626 142.258C195.127 141.129 193.177 140.89 191.472 141.633C189.772 142.368 188.548 143.977 188.253 145.872L185.33 164.571C183.977 165.303 182.638 166.056 181.303 166.824L164.771 158.963C163.092 158.163 161.132 158.327 159.603 159.4C158.067 160.466 157.17 162.291 157.239 164.212L157.874 183.189C156.697 184.17 155.533 185.171 154.38 186.185L136.66 181.828C134.859 181.391 132.972 181.95 131.669 183.308C130.359 184.672 129.827 186.637 130.249 188.513L134.422 206.997C133.454 208.196 132.496 209.407 131.556 210.634L113.361 209.972C111.525 209.918 109.772 210.835 108.746 212.437C107.718 214.032 107.563 216.073 108.327 217.83L115.865 235.076C115.133 236.46 114.406 237.856 113.706 239.274L95.7776 242.316C93.9563 242.623 92.4205 243.894 91.7123 245.672C91.0086 247.454 91.237 249.484 92.3115 251.047L102.917 266.407C102.835 266.678 102.76 266.952 102.678 267.224L72.6927 299.074C72.6927 299.074 68.101 302.676 74.7875 311.139C80.6881 318.605 110.978 348.201 126.976 363.706C133.733 371.578 138.361 376.453 138.845 376.031C139.608 375.361 135.602 361.04 122.293 344.236C112.035 329.16 98.7206 305.972 101.842 303.299C101.842 303.299 105.394 298.791 112.519 295.546C112.78 295.755 112.249 295.339 112.519 295.546C112.519 295.546 262.889 364.911 402.372 296.719C418.306 293.862 427.951 302.397 427.951 302.397C431.278 304.325 422.664 328.169 415.581 343.951C405.946 361.873 404.534 375.858 405.351 376.343C405.866 376.651 409.372 371.317 414.371 362.829C426.708 345.638 450.03 312.866 454.298 304.906C459.138 295.881 454.298 293.351 454.298 293.351Z" fill="#F74C00"/>
<path d="M314.636 337.291C315.212 336.8 315.513 336.509 315.513 336.509L266.287 331.936C306.466 278.932 338.625 321.693 342.051 326.414V337.291H314.636Z" fill="black"/>
<path d="M125.466 278.89C125.466 278.89 84.8512 263.078 77.9855 246.061C77.9855 246.061 125.655 208.144 68.6189 167.867L67.0728 219.202C67.0728 219.202 50.1733 202.899 50.9191 174.351C50.9191 174.351 -1.64229 199.641 59.8671 244.388C59.8671 244.388 61.9422 268.407 117.256 297.405L125.466 278.89Z" fill="#F74C00"/>
<path d="M290.541 257.203C290.541 257.203 305.568 240.748 320.596 257.203C320.596 257.203 332.403 279.143 320.596 290.112C320.596 290.112 301.275 305.469 290.541 290.112C290.541 290.112 277.661 278.045 290.541 257.203Z" fill="black"/>
<path d="M307.937 263.307C307.937 269.713 304.16 274.907 299.503 274.907C294.845 274.907 291.069 269.713 291.069 263.307C291.069 256.898 294.845 251.704 299.503 251.704C304.16 251.704 307.937 256.898 307.937 263.307Z" fill="white"/>
<path d="M223.472 252.713C223.472 252.713 249.249 241.3 256.285 266.775C256.285 266.775 263.654 296.467 235.116 298.143C235.116 298.143 198.726 291.134 223.472 252.713Z" fill="black"/>
<path d="M236.411 263.73C236.411 270.337 232.516 275.695 227.712 275.695C222.909 275.695 219.014 270.337 219.014 263.73C219.014 257.121 222.909 251.764 227.712 251.764C232.516 251.764 236.411 257.121 236.411 263.73Z" fill="white"/>
<path d="M390.075 285.121C390.075 285.121 384.693 306.56 351.217 329.089L341.829 331.289C341.829 331.289 311.461 275.909 268.438 338.316C268.438 338.316 281.847 330.509 317.792 340.016C317.792 340.016 301.257 365.324 267.948 364.546C267.948 364.546 299.868 402.841 348.442 347.527C348.442 347.527 399.79 327.67 403.954 285.121H390.075Z" fill="#F74C00"/>
<path fill-rule="evenodd" clip-rule="evenodd" d="M215.951 392.991C257.998 392.252 300.045 391.512 342.092 390.773C342.762 386.758 340.388 382.892 339.537 378.951C326.673 353.406 309.743 329.66 277.318 311.87C259.2 308.983 260.368 314.92 256.831 329.367C275.412 342.566 304.618 348.69 309.198 377.162C283.24 380.886 257.282 384.61 231.324 388.334C227.935 386.046 224.361 385.706 220.663 386.666C219.093 388.774 217.522 390.883 215.951 392.991V392.991Z" fill="#E9B96E"/>
<path fill-rule="evenodd" clip-rule="evenodd" d="M218.139 392.104L342.283 388.391C344.535 389.648 343.481 391.149 341.256 393.454L216.219 395.899L213.261 393.25L218.139 392.104Z" fill="#8F5902"/>
<path fill-rule="evenodd" clip-rule="evenodd" d="M256.976 330.19C259.92 331.206 262.863 332.223 265.807 333.239C289.663 343.24 309.349 358.738 309.243 377.145C307.266 380.027 303.786 381.121 303.314 385.79C301.791 400.864 293.862 400.273 294.763 389.398C295.526 380.198 294.145 379.271 289.957 380.47C283.163 383.507 272.179 382.648 263.201 381.795C261.449 388.075 255.002 386.173 250.903 388.362C246.707 411.414 244.076 410.305 242.751 387.772C235.989 389.831 230.115 387.062 223.234 386.531C218.294 386.061 215.597 392.624 214.089 394.764C212.65 396.804 209.581 394.535 207.135 392.124C203.524 401.971 208.351 405.429 200.017 401.761C189.233 397.015 201.5 421.838 198.244 428.596C194.017 430.834 184.77 416.98 190.704 399.956C186.128 389.883 187.738 385.738 195.08 382.691C197.126 374.598 202.284 372.141 207.717 370.632C211.033 368.368 214.348 366.105 217.664 363.842C222.405 354.899 227.623 352.448 234.382 351.065C236.013 340.292 240.953 338.858 247.321 337.744C249.774 333.68 252.649 330.945 256.976 330.19V330.19Z" fill="#FCE94F"/>
<path fill-rule="evenodd" clip-rule="evenodd" d="M306.255 366.229C307.564 363.503 308.874 360.776 310.184 358.049C308.622 357.901 307.06 357.752 305.498 357.604C306.804 355.606 308.11 353.609 309.416 351.611C306.574 351.805 303.732 351.999 300.89 352.194C302.193 349.533 303.497 346.872 304.8 344.211C301.573 345.694 298.345 347.178 295.118 348.662C296.245 345.785 297.372 342.908 298.499 340.032C296.201 341.405 293.904 342.778 291.606 344.151C292.494 341.716 293.382 339.28 294.27 336.845C292.317 338.052 290.364 339.259 288.41 340.466C288.576 338.028 288.742 335.591 288.908 333.153C286.96 335.686 285.012 338.22 283.064 340.753C282.849 337.484 282.634 334.215 282.419 330.945C280.903 332.393 279.386 333.84 277.87 335.287C277.769 332.891 277.668 330.494 277.568 328.098C276.798 329.284 276.029 330.471 275.259 331.658C274.418 329.456 273.576 327.254 272.735 325.053C271.922 326.699 271.108 328.346 270.295 329.993C269.066 328.417 267.837 326.842 266.607 325.266C266.426 327.172 266.245 329.077 266.064 330.983C264.638 332.174 263.211 333.364 261.785 334.555C264.434 335.005 267.084 335.456 269.734 335.907C272.683 338.043 275.632 340.18 278.581 342.317C276.848 343.279 275.115 344.242 273.382 345.204C285.11 344.793 288.849 347.602 291.627 354.297C300.419 356.459 303.612 359.48 306.255 366.229V366.229Z" fill="#C4A000"/>
<path fill-rule="evenodd" clip-rule="evenodd" d="M228.67 368.943C226.195 367.583 223.316 367.697 220.535 368.17C222.196 369.248 224.717 370.204 225.522 371.402C226.103 372.267 227.126 372.723 227.929 373.384L235.565 371.494C236.65 370.226 236.922 368.804 238.096 367.62C240.616 365.077 244.028 362.781 246.633 360.327C240.999 361.388 236.952 363.155 234.253 367.806C233.432 369.221 231.771 372.04 231.771 372.04C230.737 371.007 229.947 369.645 228.67 368.943V368.943Z" fill="#EDD400"/>
<path fill-rule="evenodd" clip-rule="evenodd" d="M270.095 366.797C266.909 361.818 261.299 363.999 256.475 364.216C260.069 365.417 262.975 364.248 267.266 367.816C268.57 368.899 268.878 370.491 268.878 370.491L272.778 370.992C272.778 370.992 271.208 368.535 270.095 366.797Z" fill="#EDD400"/>
<path fill-rule="evenodd" clip-rule="evenodd" d="M255.456 328.832C250.641 329.691 248.354 332.981 245.248 336.587C235.605 338.967 234.199 340.918 232.326 349.417C231.971 351.03 231.487 354.3 231.487 354.3L236.096 353.718C236.096 353.718 236.545 351.495 236.821 350.396C238.56 343.469 244.349 340.445 248.301 339.682C250.149 335.779 254.705 332.34 258.885 330.848C258.996 330.565 259.1 330.282 257.492 328.818C255.69 328.035 255.581 328.434 255.456 328.832Z" fill="#EDD400"/>
<path fill-rule="evenodd" clip-rule="evenodd" d="M257.016 347.885L260.541 347.083C260.541 347.083 259.618 345.034 258.966 343.866C258.243 342.573 256.078 340.172 252.729 339.055C253.312 340.853 254.812 342.193 255.56 343.846C256.204 345.27 257.016 347.885 257.016 347.885Z" fill="#EDD400"/>
<path fill-rule="evenodd" clip-rule="evenodd" d="M243.579 373.299C240.932 370.661 239.328 368.907 234.181 368.54C230.312 368.265 227.985 369.344 225.519 371.402C222.208 374.165 221.918 375.916 221.029 378.321L229.222 380.412L240.153 377.284L243.579 373.299V373.299Z" fill="#A40000"/>
<path fill-rule="evenodd" clip-rule="evenodd" d="M224.923 377.13C226.504 377.572 228.054 378.338 229.511 380.079C232.721 377.798 235.808 376.817 239.828 376.252C241.829 369.233 227.915 370.314 224.923 377.13Z" fill="#CC0000"/>
<path fill-rule="evenodd" clip-rule="evenodd" d="M282.901 374.093C276.346 370.769 271.74 370.824 267.374 370.409C267.374 370.409 269.694 367.803 270.82 366.865C282.377 357.228 294.535 356.594 297.394 369.389C295.121 369.173 288.111 371.089 282.901 374.093V374.093Z" fill="#A40000"/>
<path fill-rule="evenodd" clip-rule="evenodd" d="M272.746 369.111C276.286 369.811 279.376 370.688 282.568 372.775C286.431 370.447 288.66 369.385 293.559 368.685C290.105 358.344 278.274 362.172 272.746 369.111V369.111Z" fill="#CC0000"/>
<path fill-rule="evenodd" clip-rule="evenodd" d="M256.89 344.061C252.66 344.224 245.534 348.541 243.458 353.855C246.889 355.169 250.123 356.254 252.758 358.071C255.344 356.568 263.085 354.872 269.721 357.349C271.648 355.229 277.047 353.911 277.047 353.911C270.906 343.908 262.769 343.834 256.89 344.061Z" fill="#A40000"/>
<path fill-rule="evenodd" clip-rule="evenodd" d="M247.369 353.811C249.233 354.316 251.183 355.047 252.514 356.594C258.058 355.554 262.204 353.29 269.221 356.105C270.471 355.095 272.012 354.44 273.813 354.466C268.55 343.807 255.054 345.802 247.369 353.811V353.811Z" fill="#CC0000"/>
<path fill-rule="evenodd" clip-rule="evenodd" d="M294.186 394.374C294.565 396.089 295.721 397.323 297.661 397.819C301.246 397.864 302.83 396.352 303.391 394.191C303.786 392.667 303.958 391.091 304.152 389.527C304.382 387.683 304.736 385.968 305.337 384.491C306.287 382.152 307.203 380.397 308.362 378.776C302.985 379.919 301.668 382.81 300.89 389.356C300.071 396.243 299.544 395.837 298.43 395.835C297.347 395.832 296.334 395.745 296.411 389.769C296.431 388.234 296.626 385.154 297.432 382.613C298.441 379.434 296.727 377.311 293.795 376.923C290.726 377.944 287.659 378.958 284.591 379.98C282.364 379.956 280.141 379.933 277.915 379.909C275.206 378.12 272.621 379.135 269.165 381.055C266.909 380.371 264.651 379.681 262.394 378.998C261.472 380.879 260.548 382.761 259.626 384.643C256.711 385.022 253.803 385.41 250.888 385.79C250.408 387.583 249.923 389.376 249.444 391.17C248.964 392.964 247.449 398.644 246.991 400.328C245.214 406.858 244.823 403.054 244.539 395.348C244.47 393.494 244.378 392.078 244.321 390.442C244.267 388.864 244.268 387.428 244.202 385.706C243.204 384.486 242.212 383.275 241.213 382.055C238.938 383.526 236.741 385.127 234.385 386.463C232.841 387.34 229.655 387.508 226.231 386.891C227.818 391.958 232.397 391.339 237.399 389.853C239.314 389.284 241.204 389.401 241.68 391.409C241.987 392.707 241.958 394.074 241.892 395.406C241.739 398.46 241.061 401.486 241.024 404.543C240.903 414.57 248.012 408.959 251.011 402.112C251.833 400.234 252.8 392.268 253.964 391.036C254.508 390.461 255.362 390.304 256.061 389.936C261.682 391.087 263.23 389.463 265.451 384.92C270.367 387.538 274.028 386.857 278.176 383.037C283.675 385.489 287.018 385.739 291.889 382.363C293.403 382.543 294.09 382.444 293.809 385.637C293.686 387.041 293.858 392.889 294.186 394.374Z" fill="#EDD400"/>
<path fill-rule="evenodd" clip-rule="evenodd" d="M236.093 353.717C237.723 352.795 247.999 356.692 253.27 360.325C255.856 358.823 264.388 356.466 271.024 358.943C273.109 356.841 274.569 355.099 280.676 354.044C277.053 353.038 275.535 353.62 273.817 354.461C272.017 354.436 270.471 355.095 269.221 356.105C262.204 353.29 258.052 355.559 252.508 356.598C251.176 355.051 249.244 354.253 247.365 353.81C246.181 353.531 244.982 353.301 243.773 353.159C240.358 352.758 236.093 353.717 236.093 353.717Z" fill="#EDD400"/>
<path fill-rule="evenodd" clip-rule="evenodd" d="M232.326 349.417C224.469 350.762 221.076 354.264 215.36 363.84C210.798 364.85 209.337 366.362 206.66 370.335C198.969 368.758 196.555 373.838 193.898 381.491C183.704 385.694 183.927 394.278 189.279 400.754C188.544 405.56 187.814 410.359 187.079 415.165C189.654 432.903 205.946 439.015 200.282 416.983C199.628 412.139 194.812 406.901 198.316 402.451C203.198 406.245 205.659 408.62 207.567 396.02C212.419 398.158 214.784 397.545 216.219 395.899C216.859 394.634 217.499 393.369 218.139 392.104C219.108 389.482 220.071 386.82 223.234 386.531C219.303 385.518 216.646 389.636 213.261 393.25C210.716 392.807 208.85 390.32 207.098 389.216C203.093 391.592 203.321 392.978 203.004 400.08C200.619 399.76 198.516 398.477 195.843 399.124C194.431 403.502 192.759 406.466 195.177 412.004C200.313 426.464 197.012 434.351 189.693 414.011C189.316 410.819 190.574 408.653 191.014 405.976C193.613 399.943 188.885 394.404 189.586 391.771C190.255 388.425 192.439 385.623 197.273 384.065C199.799 376.084 201.435 375.383 208.298 373.583C211.124 369.518 213.537 367.799 219.735 367.635C222.591 357.179 227.091 354.24 236.096 353.718C237.726 352.796 248.002 356.693 253.273 360.326C250.107 357.938 246.768 355.766 243.776 353.16C241.158 350.88 236.628 348.681 232.326 349.417V349.417Z" fill="#EDD400"/>
<path fill-rule="evenodd" clip-rule="evenodd" d="M260.597 372.711C270.762 370.669 275.419 372.889 281.974 376.213C287.184 373.209 294.593 370.044 302.71 370.999C299.584 370.352 296.524 368.477 293.561 368.681C288.626 369.021 286.426 370.447 282.562 372.775C279.371 370.687 276.285 369.807 272.745 369.106C269.862 368.536 266.477 368.395 260.597 372.711V372.711Z" fill="#EDD400"/>
<path fill-rule="evenodd" clip-rule="evenodd" d="M210.354 379.352C216.42 379.499 222.553 378.913 228.29 382.527C232.912 379.958 236.314 378.753 241.743 379.208C245.425 373.725 245.854 371.801 256.789 372.533C251.97 369.497 247.83 368.495 243.717 371.843C242.199 373.079 239.826 376.255 239.826 376.255C235.805 376.82 232.723 377.8 229.513 380.08C227.615 377.859 225.25 377.276 222.807 376.616C218.48 375.446 213.353 377.168 210.354 379.352V379.352Z" fill="#EDD400"/>
<path fill-rule="evenodd" clip-rule="evenodd" d="M258.885 330.848C260.672 326.318 260.47 321.993 261.262 317.568C262.47 314.697 264.487 312.69 268.422 312.903C269.733 312.974 271.26 313.289 273.04 313.905C299.043 321.674 320.223 349.074 337.742 377.718C336.01 384.836 321.851 358.952 313.515 369.221C313.234 370.226 309.819 373.114 308.362 378.776C309.982 377.584 311.641 376.452 313.466 375.136C315.635 373.302 317.976 373.132 318.501 369.948C326.603 372.142 333.495 379.522 341.626 387.524C343.608 385.365 342.36 388.568 343.154 384.014C324.033 341.549 297.04 311.63 272.029 309.085C268.456 308.721 264.913 308.915 261.45 309.712C255.43 315.96 257.455 322.458 255.456 328.832L258.885 330.848Z" fill="#8F5902"/>
<path d="M262.836 235.344C220.941 235.344 183.075 240.381 154.56 248.588V246.734C126.044 255.909 107.881 268.655 107.881 282.747C107.881 284.969 108.373 287.157 109.235 289.302L106.316 294.538C106.316 294.538 103.972 297.594 108.121 304.043C111.78 309.729 130.116 331.987 139.791 343.643C143.946 349.619 146.767 353.299 147.013 352.943C147.401 352.379 144.431 341.161 136.178 328.361C132.327 321.486 127.638 312.378 124.878 305.65C132.585 310.528 142.861 314.953 154.56 318.761V318.703C183.075 326.911 220.941 331.947 262.836 331.947C310.785 331.947 353.804 325.35 382.685 314.951V252.341C353.804 241.942 310.785 235.344 262.836 235.344Z" fill="#A52B00"/>
<path d="M425.771 293.41L420.86 283.236C420.886 282.85 420.906 282.464 420.906 282.076C420.906 270.542 408.913 259.914 388.735 251.403V312.749C398.15 308.777 405.788 304.346 411.25 299.574C409.642 306.039 404.144 319.116 399.761 328.313C392.556 341.467 389.947 352.918 390.281 353.485C390.495 353.842 392.953 350.051 396.578 343.906C405.012 331.887 420.996 308.942 424.19 303.097C427.809 296.472 425.771 293.41 425.771 293.41Z" fill="#A52B00"/>
<path d="M454.298 293.351L422.019 269.573C421.715 268.514 421.412 267.457 421.099 266.407L431.701 251.047C432.784 249.484 433.002 247.454 432.299 245.672C431.595 243.899 430.056 242.627 428.235 242.316L410.306 239.274C409.612 237.856 408.883 236.46 408.153 235.076L415.685 217.83C416.46 216.073 416.297 214.032 415.269 212.437C414.246 210.835 412.508 209.899 410.656 209.972L392.461 210.634C391.519 209.407 390.562 208.191 389.585 206.997L393.767 188.513C394.191 186.637 393.656 184.672 392.349 183.308C391.049 181.95 389.16 181.387 387.364 181.828L369.641 186.185C368.493 185.171 367.327 184.17 366.146 183.189L366.784 164.212C366.853 162.291 365.957 160.466 364.419 159.4C362.883 158.327 360.932 158.166 359.251 158.963L342.717 166.824C341.386 166.06 340.047 165.303 338.694 164.571L335.772 145.872C335.475 143.977 334.256 142.368 332.55 141.633C330.848 140.894 328.897 141.133 327.403 142.258L312.662 153.318C311.211 152.836 309.753 152.374 308.277 151.932L301.923 134.199C301.277 132.392 299.787 131.064 297.971 130.691C296.16 130.321 294.298 130.948 293.042 132.35L280.635 146.232C279.134 146.06 277.633 145.903 276.128 145.772L266.547 129.63C265.576 127.995 263.862 127 262.015 127C260.172 127 258.454 127.995 257.492 129.63L247.908 145.772C246.402 145.903 244.894 146.06 243.396 146.232L230.987 132.35C229.731 130.948 227.861 130.321 226.057 130.691C224.241 131.069 222.75 132.392 222.106 134.199L215.747 151.932C214.275 152.374 212.817 152.839 211.362 153.318L196.626 142.258C195.127 141.129 193.177 140.89 191.472 141.633C189.772 142.368 188.548 143.977 188.253 145.872L185.33 164.571C183.977 165.303 182.638 166.056 181.303 166.824L164.771 158.963C163.092 158.163 161.132 158.327 159.603 159.4C158.067 160.466 157.17 162.291 157.239 164.212L157.874 183.189C156.697 184.17 155.533 185.171 154.38 186.185L136.66 181.828C134.859 181.391 132.972 181.95 131.669 183.308C130.359 184.672 129.827 186.637 130.249 188.513L134.422 206.997C133.454 208.196 132.496 209.407 131.556 210.634L113.361 209.972C111.525 209.918 109.772 210.835 108.746 212.437C107.718 214.032 107.563 216.073 108.327 217.83L115.865 235.076C115.133 236.46 114.406 237.856 113.706 239.274L95.7776 242.316C93.9563 242.623 92.4205 243.894 91.7123 245.672C91.0086 247.454 91.237 249.484 92.3115 251.047L102.917 266.407C102.835 266.678 102.76 266.952 102.678 267.224L72.6927 299.074C72.6927 299.074 68.101 302.676 74.7875 311.139C80.6881 318.605 110.978 348.201 126.976 363.706C133.733 371.578 138.361 376.453 138.845 376.031C139.608 375.361 135.602 361.04 122.293 344.236C112.035 329.16 98.7206 305.972 101.842 303.299C101.842 303.299 105.394 298.791 112.519 295.546C112.78 295.755 112.249 295.339 112.519 295.546C112.519 295.546 262.889 364.911 402.372 296.719C418.306 293.862 427.951 302.397 427.951 302.397C431.278 304.325 422.664 328.169 415.581 343.951C405.946 361.873 404.534 375.858 405.351 376.343C405.866 376.651 409.372 371.317 414.371 362.829C426.708 345.638 450.03 312.866 454.298 304.906C459.138 295.881 454.298 293.351 454.298 293.351Z" fill="#F74C00"/>
<path d="M314.636 337.291C315.212 336.8 315.513 336.509 315.513 336.509L266.287 331.936C306.466 278.932 338.625 321.693 342.051 326.414V337.291H314.636Z" fill="black"/>
<path d="M125.466 278.89C125.466 278.89 84.8512 263.078 77.9855 246.061C77.9855 246.061 125.655 208.144 68.6189 167.867L67.0728 219.202C67.0728 219.202 50.1733 202.899 50.9191 174.351C50.9191 174.351 -1.64229 199.641 59.8671 244.388C59.8671 244.388 61.9422 268.407 117.256 297.405L125.466 278.89Z" fill="#F74C00"/>
<path d="M290.541 257.203C290.541 257.203 305.568 240.748 320.596 257.203C320.596 257.203 332.403 279.143 320.596 290.112C320.596 290.112 301.275 305.469 290.541 290.112C290.541 290.112 277.661 278.045 290.541 257.203Z" fill="black"/>
<path d="M307.937 263.307C307.937 269.713 304.16 274.907 299.503 274.907C294.845 274.907 291.069 269.713 291.069 263.307C291.069 256.898 294.845 251.704 299.503 251.704C304.16 251.704 307.937 256.898 307.937 263.307Z" fill="white"/>
<path d="M223.472 252.713C223.472 252.713 249.249 241.3 256.285 266.775C256.285 266.775 263.654 296.467 235.116 298.143C235.116 298.143 198.726 291.134 223.472 252.713Z" fill="black"/>
<path d="M236.411 263.73C236.411 270.337 232.516 275.695 227.712 275.695C222.909 275.695 219.014 270.337 219.014 263.73C219.014 257.121 222.909 251.764 227.712 251.764C232.516 251.764 236.411 257.121 236.411 263.73Z" fill="white"/>
<path d="M390.075 285.121C390.075 285.121 384.693 306.56 351.217 329.089L341.829 331.289C341.829 331.289 311.461 275.909 268.438 338.316C268.438 338.316 281.847 330.509 317.792 340.016C325 341.922 334.5 347.527 348.442 347.527C348.442 347.527 399.79 327.67 403.954 285.121H390.075Z" fill="#F74C00"/>
</svg>
